<svg width="512" height="512" viewBox="0 0 512 512" fill="none" xmlns="http://www.w3.org/2000/svg">
<g clip-path="url(#clip0_101_18)">
<path d="M448 0H64C28.6538 0 0 28.6538 0 64V448C0 483.346 28.6538 512 64 512H448C483.346 512 512 483.346 512 448V64C512 28.6538 483.346 0 448 0Z" fill="black"/>
<path d="M356.218 344.751C377.484 346.391 378.543 379.134 355.537 381.298C338.945 381.957 322.373 382.058 305.924 381.88L281.343 381.469L269.132 381.192L251.734 380.5C228.157 379.504 203.423 379.105 176.271 379.618C149.343 379.984 120.76 380.561 92.809 381.407C92.9065 381.147 92.8577 380.948 93.0775 380.635L94.0048 379.577L95.8637 377.454L99.598 373.187L107.14 364.576L122.719 346.715L155.113 309.381C165.99 296.711 176.603 283.877 187.008 270.732L202.632 250.743L204.597 248.213L206.207 246.094L208.473 243.003L213.009 236.816L215.291 233.704C215.803 233.025 215.657 233.139 215.824 232.883L216.113 232.358L217.215 230.321L219.184 226.554C220.392 224.178 221.393 222.08 222.19 220.253C223.773 216.609 224.598 214.058 224.468 212.61C215.783 214.526 209.617 216.064 205.985 217.671C205.078 218.069 204.329 218.472 203.735 218.875C203.438 219.074 203.182 219.278 202.967 219.481C202.91 219.53 202.881 219.583 202.841 219.631L202.788 219.708C202.747 219.721 202.849 219.733 202.686 219.746L202.048 219.782L196.975 220.079C183.483 220.893 170.239 221.857 157.277 223.179C142.475 225.859 135.08 114.264 153.202 115.46C168.057 115.7 182.656 116.363 196.997 117.181L202.362 117.498L211.88 117.852L231.97 118.662C245.308 119.178 258.406 119.78 271.611 120.086C297.75 120.899 325.256 120.13 352.225 119.829L429.608 118.808L342.452 205.957L322.139 226.694C315.549 233.516 309.472 240.207 303.208 246.87L269.865 283.837L261.969 292.318L261.359 292.965L261.127 293.157L260.631 293.575L256.47 297.163L247.061 305.441L236.119 315.105L230.042 320.426L226.84 323.2L225.205 324.62L224.379 325.34L223.965 325.702C223.916 325.787 224.131 325.755 224.2 325.787C234.78 327.419 248.757 330.201 266.11 333.552L272.928 334.825L284.927 336.514L308.788 339.727C324.648 341.769 340.428 343.523 356.218 344.751Z" fill="white"/>
</g>
<defs>
<clipPath id="clip0_101_18">
<rect width="512" height="512" rx="256" fill="white"/>
</clipPath>
</defs>
</svg>
